# xmcd
#
# Track frame offsets:
#	150
#	17473
#	38771
#	54913
#	78698
#	95856
#	126078
#	143579
#	165382
#	185520
#	197665
#	215289
#	233547
#	256245
#
# Disc length: 3718 seconds
#
# Revision: 1
# Processed by: cddbd v1.5.2PL0 Copyright (c) Steve Scherf et al.
# Submitted via: audiograbber 1.83.01
#
DISCID=b00e840e
DTITLE=Joseph Cabanilla - Toma Mi Vida
DYEAR=2004
DGENRE=Tex-Mex
TTITLE0=Lágrimas de un niño
TTITLE1=Como ladrón en la noche
TTITLE2=Alivio para mi corazón
TTITLE3=Cómo no rendirme a Ti (featuring John Pulido)
TTITLE4=La razón de mi existencia
TTITLE5=Con mis manos levantadas
TTITLE6=Gracias (featuring Peter and Lili)
TTITLE7=Amigo
TTITLE8=Ven [medley]
TTITLE9=A Cristo le voy
TTITLE10=Cerca de Ti [Remix featuring John Pulido]
TTITLE11=Porque eres quinceañera
TTITLE12=Vals de Lily
TTITLE13=Vals de Lily [Instrumental]
EXTD=Títulos corregidos y exáctos.
EXTT0=
EXTT1=
EXTT2=
EXTT3=
EXTT4=
EXTT5=
EXTT6=
EXTT7=
EXTT8=
EXTT9=
EXTT10=
EXTT11=
EXTT12=
EXTT13=
PLAYORDER=
